<mxfile host="app.diagrams.net" modified="2023-03-29T02:46:07.557Z" agent="Mozilla/5.0 (Windows NT 10.0; Win64; x64) AppleWebKit/537.36 (KHTML, like Gecko) Chrome/111.0.0.0 Safari/537.36" etag="HStAMjRd9rqu2Fq4y6M0" version="21.1.1" type="github">
  <diagram name="PÃ¡gina-1" id="GbVJSJxy3QYXCFHWKnBK">
    <mxGraphModel dx="4456" dy="2464" grid="1" gridSize="10" guides="1" tooltips="1" connect="1" arrows="1" fold="1" page="1" pageScale="1" pageWidth="827" pageHeight="1169" math="0" shadow="0">
      <root>
        <mxCell id="0" />
        <mxCell id="1" parent="0" />
        <mxCell id="9bkrWgoY6Sax6kgN7_r8-2" value="Cliente" style="shape=umlActor;verticalLabelPosition=bottom;verticalAlign=top;html=1;outlineConnect=0;" vertex="1" parent="1">
          <mxGeometry x="50" y="440" width="30" height="60" as="geometry" />
        </mxCell>
        <mxCell id="9bkrWgoY6Sax6kgN7_r8-15" value="UC001 -&amp;nbsp; Compras" style="shape=umlFrame;whiteSpace=wrap;html=1;pointerEvents=0;width=160;height=30;" vertex="1" parent="1">
          <mxGeometry x="20" y="290" width="790" height="340" as="geometry" />
        </mxCell>
        <mxCell id="9bkrWgoY6Sax6kgN7_r8-16" value="Realizar Login" style="ellipse;whiteSpace=wrap;html=1;" vertex="1" parent="1">
          <mxGeometry x="340" y="390" width="120" height="50" as="geometry" />
        </mxCell>
        <mxCell id="9bkrWgoY6Sax6kgN7_r8-28" value="UC02 - Efetuar Cadastro" style="ellipse;whiteSpace=wrap;html=1;" vertex="1" parent="1">
          <mxGeometry x="325" y="310" width="160" height="50" as="geometry" />
        </mxCell>
        <mxCell id="9bkrWgoY6Sax6kgN7_r8-30" value="Adicionar item no carrinho" style="ellipse;whiteSpace=wrap;html=1;" vertex="1" parent="1">
          <mxGeometry x="305" y="480" width="160" height="50" as="geometry" />
        </mxCell>
        <mxCell id="9bkrWgoY6Sax6kgN7_r8-32" value="Finalizar compra" style="ellipse;whiteSpace=wrap;html=1;" vertex="1" parent="1">
          <mxGeometry x="600" y="440" width="120" height="50" as="geometry" />
        </mxCell>
        <mxCell id="9bkrWgoY6Sax6kgN7_r8-37" value="&amp;lt;&amp;lt;include&amp;gt;&amp;gt;" style="html=1;verticalAlign=bottom;labelBackgroundColor=none;endArrow=open;endFill=0;dashed=1;rounded=0;exitX=0.242;exitY=0.04;exitDx=0;exitDy=0;entryX=0.965;entryY=0.659;entryDx=0;entryDy=0;entryPerimeter=0;exitPerimeter=0;" edge="1" parent="1" source="9bkrWgoY6Sax6kgN7_r8-32" target="9bkrWgoY6Sax6kgN7_r8-16">
          <mxGeometry width="160" relative="1" as="geometry">
            <mxPoint x="410" y="400" as="sourcePoint" />
            <mxPoint x="570" y="400" as="targetPoint" />
          </mxGeometry>
        </mxCell>
        <mxCell id="9bkrWgoY6Sax6kgN7_r8-39" value="Limpar carrinho" style="ellipse;whiteSpace=wrap;html=1;" vertex="1" parent="1">
          <mxGeometry x="600" y="530" width="120" height="50" as="geometry" />
        </mxCell>
        <mxCell id="9bkrWgoY6Sax6kgN7_r8-41" value="&amp;lt;&amp;lt;extend&amp;gt;&amp;gt;" style="html=1;verticalAlign=bottom;labelBackgroundColor=none;endArrow=open;endFill=0;dashed=1;rounded=0;exitX=1;exitY=0.5;exitDx=0;exitDy=0;" edge="1" parent="1" source="9bkrWgoY6Sax6kgN7_r8-30" target="9bkrWgoY6Sax6kgN7_r8-32">
          <mxGeometry width="160" relative="1" as="geometry">
            <mxPoint x="330" y="560" as="sourcePoint" />
            <mxPoint x="490" y="560" as="targetPoint" />
          </mxGeometry>
        </mxCell>
        <mxCell id="9bkrWgoY6Sax6kgN7_r8-42" value="&amp;lt;&amp;lt;extend&amp;gt;&amp;gt;" style="html=1;verticalAlign=bottom;labelBackgroundColor=none;endArrow=open;endFill=0;dashed=1;rounded=0;exitX=0.913;exitY=0.84;exitDx=0;exitDy=0;entryX=0.017;entryY=0.403;entryDx=0;entryDy=0;entryPerimeter=0;exitPerimeter=0;" edge="1" parent="1" source="9bkrWgoY6Sax6kgN7_r8-30" target="9bkrWgoY6Sax6kgN7_r8-39">
          <mxGeometry width="160" relative="1" as="geometry">
            <mxPoint x="400" y="620" as="sourcePoint" />
            <mxPoint x="517" y="546" as="targetPoint" />
          </mxGeometry>
        </mxCell>
        <mxCell id="9bkrWgoY6Sax6kgN7_r8-43" value="" style="endArrow=none;html=1;rounded=0;entryX=0;entryY=0.5;entryDx=0;entryDy=0;" edge="1" parent="1" source="9bkrWgoY6Sax6kgN7_r8-2" target="9bkrWgoY6Sax6kgN7_r8-28">
          <mxGeometry width="50" height="50" relative="1" as="geometry">
            <mxPoint x="170" y="460" as="sourcePoint" />
            <mxPoint x="220" y="410" as="targetPoint" />
          </mxGeometry>
        </mxCell>
        <mxCell id="9bkrWgoY6Sax6kgN7_r8-44" value="" style="endArrow=none;html=1;rounded=0;entryX=0;entryY=0.5;entryDx=0;entryDy=0;" edge="1" parent="1" source="9bkrWgoY6Sax6kgN7_r8-2" target="9bkrWgoY6Sax6kgN7_r8-16">
          <mxGeometry width="50" height="50" relative="1" as="geometry">
            <mxPoint x="100" y="473" as="sourcePoint" />
            <mxPoint x="270" y="460" as="targetPoint" />
          </mxGeometry>
        </mxCell>
        <mxCell id="9bkrWgoY6Sax6kgN7_r8-45" value="" style="endArrow=none;html=1;rounded=0;entryX=0;entryY=0.5;entryDx=0;entryDy=0;" edge="1" parent="1" source="9bkrWgoY6Sax6kgN7_r8-2" target="9bkrWgoY6Sax6kgN7_r8-30">
          <mxGeometry width="50" height="50" relative="1" as="geometry">
            <mxPoint x="110" y="495" as="sourcePoint" />
            <mxPoint x="290" y="490" as="targetPoint" />
          </mxGeometry>
        </mxCell>
        <mxCell id="9bkrWgoY6Sax6kgN7_r8-46" value="Pesquisar Produto" style="ellipse;whiteSpace=wrap;html=1;" vertex="1" parent="1">
          <mxGeometry x="325" y="550" width="120" height="50" as="geometry" />
        </mxCell>
        <mxCell id="9bkrWgoY6Sax6kgN7_r8-47" value="" style="endArrow=none;html=1;rounded=0;entryX=0;entryY=0.5;entryDx=0;entryDy=0;" edge="1" parent="1" source="9bkrWgoY6Sax6kgN7_r8-2" target="9bkrWgoY6Sax6kgN7_r8-46">
          <mxGeometry width="50" height="50" relative="1" as="geometry">
            <mxPoint x="100" y="486" as="sourcePoint" />
            <mxPoint x="260" y="545" as="targetPoint" />
          </mxGeometry>
        </mxCell>
        <mxCell id="9bkrWgoY6Sax6kgN7_r8-49" value="Confirmar Pagamento" style="ellipse;whiteSpace=wrap;html=1;" vertex="1" parent="1">
          <mxGeometry x="670" y="340" width="130" height="50" as="geometry" />
        </mxCell>
        <mxCell id="9bkrWgoY6Sax6kgN7_r8-50" value="" style="endArrow=none;html=1;rounded=0;entryX=0.437;entryY=1.01;entryDx=0;entryDy=0;entryPerimeter=0;exitX=0.764;exitY=0.093;exitDx=0;exitDy=0;exitPerimeter=0;" edge="1" parent="1" source="9bkrWgoY6Sax6kgN7_r8-32" target="9bkrWgoY6Sax6kgN7_r8-49">
          <mxGeometry width="50" height="50" relative="1" as="geometry">
            <mxPoint x="560" y="450" as="sourcePoint" />
            <mxPoint x="610" y="400" as="targetPoint" />
          </mxGeometry>
        </mxCell>
        <mxCell id="9bkrWgoY6Sax6kgN7_r8-64" style="edgeStyle=orthogonalEdgeStyle;rounded=0;orthogonalLoop=1;jettySize=auto;html=1;entryX=0;entryY=0.5;entryDx=0;entryDy=0;" edge="1" parent="1" source="9bkrWgoY6Sax6kgN7_r8-53" target="9bkrWgoY6Sax6kgN7_r8-55">
          <mxGeometry relative="1" as="geometry" />
        </mxCell>
        <mxCell id="9bkrWgoY6Sax6kgN7_r8-65" style="edgeStyle=orthogonalEdgeStyle;rounded=0;orthogonalLoop=1;jettySize=auto;html=1;entryX=0;entryY=0.5;entryDx=0;entryDy=0;" edge="1" parent="1" source="9bkrWgoY6Sax6kgN7_r8-53" target="9bkrWgoY6Sax6kgN7_r8-58">
          <mxGeometry relative="1" as="geometry" />
        </mxCell>
        <mxCell id="9bkrWgoY6Sax6kgN7_r8-66" style="edgeStyle=orthogonalEdgeStyle;rounded=0;orthogonalLoop=1;jettySize=auto;html=1;" edge="1" parent="1" source="9bkrWgoY6Sax6kgN7_r8-53">
          <mxGeometry relative="1" as="geometry">
            <mxPoint x="524" y="940" as="targetPoint" />
          </mxGeometry>
        </mxCell>
        <mxCell id="9bkrWgoY6Sax6kgN7_r8-67" style="edgeStyle=orthogonalEdgeStyle;rounded=0;orthogonalLoop=1;jettySize=auto;html=1;entryX=0;entryY=0.5;entryDx=0;entryDy=0;" edge="1" parent="1" source="9bkrWgoY6Sax6kgN7_r8-53" target="9bkrWgoY6Sax6kgN7_r8-60">
          <mxGeometry relative="1" as="geometry" />
        </mxCell>
        <mxCell id="9bkrWgoY6Sax6kgN7_r8-68" style="edgeStyle=orthogonalEdgeStyle;rounded=0;orthogonalLoop=1;jettySize=auto;html=1;entryX=0;entryY=0.5;entryDx=0;entryDy=0;" edge="1" parent="1" source="9bkrWgoY6Sax6kgN7_r8-53" target="9bkrWgoY6Sax6kgN7_r8-59">
          <mxGeometry relative="1" as="geometry" />
        </mxCell>
        <mxCell id="9bkrWgoY6Sax6kgN7_r8-69" style="edgeStyle=orthogonalEdgeStyle;rounded=0;orthogonalLoop=1;jettySize=auto;html=1;entryX=0;entryY=0.5;entryDx=0;entryDy=0;" edge="1" parent="1" source="9bkrWgoY6Sax6kgN7_r8-53" target="9bkrWgoY6Sax6kgN7_r8-63">
          <mxGeometry relative="1" as="geometry" />
        </mxCell>
        <mxCell id="9bkrWgoY6Sax6kgN7_r8-70" style="edgeStyle=orthogonalEdgeStyle;rounded=0;orthogonalLoop=1;jettySize=auto;html=1;entryX=0;entryY=0.5;entryDx=0;entryDy=0;" edge="1" parent="1" source="9bkrWgoY6Sax6kgN7_r8-53" target="9bkrWgoY6Sax6kgN7_r8-62">
          <mxGeometry relative="1" as="geometry" />
        </mxCell>
        <mxCell id="9bkrWgoY6Sax6kgN7_r8-53" value="Cliente" style="shape=umlActor;verticalLabelPosition=bottom;verticalAlign=top;html=1;outlineConnect=0;" vertex="1" parent="1">
          <mxGeometry x="104" y="1040" width="30" height="60" as="geometry" />
        </mxCell>
        <mxCell id="9bkrWgoY6Sax6kgN7_r8-55" value="Venda na Amazon" style="ellipse;whiteSpace=wrap;html=1;" vertex="1" parent="1">
          <mxGeometry x="304" y="920" width="120" height="50" as="geometry" />
        </mxCell>
        <mxCell id="9bkrWgoY6Sax6kgN7_r8-58" value="Mias vendidos" style="ellipse;whiteSpace=wrap;html=1;" vertex="1" parent="1">
          <mxGeometry x="304" y="1010" width="120" height="50" as="geometry" />
        </mxCell>
        <mxCell id="9bkrWgoY6Sax6kgN7_r8-59" value="Use Case" style="ellipse;whiteSpace=wrap;html=1;" vertex="1" parent="1">
          <mxGeometry x="374" y="1100" width="120" height="50" as="geometry" />
        </mxCell>
        <mxCell id="9bkrWgoY6Sax6kgN7_r8-60" value="Use Case" style="ellipse;whiteSpace=wrap;html=1;" vertex="1" parent="1">
          <mxGeometry x="614" y="1060" width="120" height="50" as="geometry" />
        </mxCell>
        <mxCell id="9bkrWgoY6Sax6kgN7_r8-61" value="Use Case" style="ellipse;whiteSpace=wrap;html=1;" vertex="1" parent="1">
          <mxGeometry x="529" y="910" width="120" height="50" as="geometry" />
        </mxCell>
        <mxCell id="9bkrWgoY6Sax6kgN7_r8-62" value="Use Case" style="ellipse;whiteSpace=wrap;html=1;" vertex="1" parent="1">
          <mxGeometry x="524" y="1140" width="120" height="50" as="geometry" />
        </mxCell>
        <mxCell id="9bkrWgoY6Sax6kgN7_r8-63" value="Use Case" style="ellipse;whiteSpace=wrap;html=1;" vertex="1" parent="1">
          <mxGeometry x="304" y="1200" width="120" height="50" as="geometry" />
        </mxCell>
        <mxCell id="9bkrWgoY6Sax6kgN7_r8-71" value="UC002 -&amp;nbsp; Menu" style="shape=umlFrame;whiteSpace=wrap;html=1;pointerEvents=0;width=160;height=30;" vertex="1" parent="1">
          <mxGeometry x="74" y="890" width="680" height="380" as="geometry" />
        </mxCell>
        <mxCell id="9bkrWgoY6Sax6kgN7_r8-72" value="UC003 -&amp;nbsp; Finalizar compra" style="shape=umlFrame;whiteSpace=wrap;html=1;pointerEvents=0;width=160;height=30;" vertex="1" parent="1">
          <mxGeometry x="30" y="1490" width="800" height="250" as="geometry" />
        </mxCell>
        <mxCell id="9bkrWgoY6Sax6kgN7_r8-73" value="Cliente" style="shape=umlActor;verticalLabelPosition=bottom;verticalAlign=top;html=1;outlineConnect=0;" vertex="1" parent="1">
          <mxGeometry x="50" y="1590" width="30" height="60" as="geometry" />
        </mxCell>
        <mxCell id="9bkrWgoY6Sax6kgN7_r8-74" value="PIX" style="ellipse;whiteSpace=wrap;html=1;" vertex="1" parent="1">
          <mxGeometry x="150" y="1520" width="120" height="50" as="geometry" />
        </mxCell>
        <mxCell id="9bkrWgoY6Sax6kgN7_r8-75" value="CartÃ£o de CrÃ©dito" style="ellipse;whiteSpace=wrap;html=1;" vertex="1" parent="1">
          <mxGeometry x="150" y="1590" width="120" height="50" as="geometry" />
        </mxCell>
        <mxCell id="9bkrWgoY6Sax6kgN7_r8-76" value="Boleto" style="ellipse;whiteSpace=wrap;html=1;" vertex="1" parent="1">
          <mxGeometry x="150" y="1660" width="120" height="50" as="geometry" />
        </mxCell>
        <mxCell id="9bkrWgoY6Sax6kgN7_r8-77" value="Gerar chave PIX" style="ellipse;whiteSpace=wrap;html=1;" vertex="1" parent="1">
          <mxGeometry x="354" y="1520" width="120" height="50" as="geometry" />
        </mxCell>
        <mxCell id="9bkrWgoY6Sax6kgN7_r8-78" value="Enviar dados CartÃ£o" style="ellipse;whiteSpace=wrap;html=1;" vertex="1" parent="1">
          <mxGeometry x="345" y="1590" width="120" height="50" as="geometry" />
        </mxCell>
        <mxCell id="9bkrWgoY6Sax6kgN7_r8-80" value="" style="endArrow=none;html=1;rounded=0;entryX=0;entryY=0.5;entryDx=0;entryDy=0;" edge="1" parent="1" source="9bkrWgoY6Sax6kgN7_r8-73" target="9bkrWgoY6Sax6kgN7_r8-74">
          <mxGeometry width="50" height="50" relative="1" as="geometry">
            <mxPoint x="90" y="1610" as="sourcePoint" />
            <mxPoint x="140" y="1560" as="targetPoint" />
          </mxGeometry>
        </mxCell>
        <mxCell id="9bkrWgoY6Sax6kgN7_r8-81" value="" style="endArrow=none;html=1;rounded=0;entryX=0;entryY=0.5;entryDx=0;entryDy=0;" edge="1" parent="1" source="9bkrWgoY6Sax6kgN7_r8-73" target="9bkrWgoY6Sax6kgN7_r8-75">
          <mxGeometry width="50" height="50" relative="1" as="geometry">
            <mxPoint x="50" y="1639" as="sourcePoint" />
            <mxPoint x="160" y="1591" as="targetPoint" />
          </mxGeometry>
        </mxCell>
        <mxCell id="9bkrWgoY6Sax6kgN7_r8-82" value="" style="endArrow=none;html=1;rounded=0;entryX=0;entryY=0.5;entryDx=0;entryDy=0;" edge="1" parent="1" source="9bkrWgoY6Sax6kgN7_r8-73" target="9bkrWgoY6Sax6kgN7_r8-76">
          <mxGeometry width="50" height="50" relative="1" as="geometry">
            <mxPoint x="30" y="1662" as="sourcePoint" />
            <mxPoint x="160" y="1640" as="targetPoint" />
          </mxGeometry>
        </mxCell>
        <mxCell id="9bkrWgoY6Sax6kgN7_r8-83" value="" style="endArrow=none;html=1;rounded=0;entryX=0;entryY=0.5;entryDx=0;entryDy=0;exitX=1;exitY=0.5;exitDx=0;exitDy=0;" edge="1" parent="1" source="9bkrWgoY6Sax6kgN7_r8-75" target="9bkrWgoY6Sax6kgN7_r8-78">
          <mxGeometry width="50" height="50" relative="1" as="geometry">
            <mxPoint x="230" y="1651" as="sourcePoint" />
            <mxPoint x="360" y="1629" as="targetPoint" />
          </mxGeometry>
        </mxCell>
        <mxCell id="9bkrWgoY6Sax6kgN7_r8-84" value="Boleto" style="ellipse;whiteSpace=wrap;html=1;" vertex="1" parent="1">
          <mxGeometry x="350" y="1660" width="120" height="50" as="geometry" />
        </mxCell>
        <mxCell id="9bkrWgoY6Sax6kgN7_r8-87" value="" style="endArrow=none;html=1;rounded=0;exitX=1;exitY=0.5;exitDx=0;exitDy=0;entryX=0;entryY=0.5;entryDx=0;entryDy=0;" edge="1" parent="1" source="9bkrWgoY6Sax6kgN7_r8-76" target="9bkrWgoY6Sax6kgN7_r8-84">
          <mxGeometry width="50" height="50" relative="1" as="geometry">
            <mxPoint x="295" y="1700" as="sourcePoint" />
            <mxPoint x="345" y="1650" as="targetPoint" />
          </mxGeometry>
        </mxCell>
        <mxCell id="9bkrWgoY6Sax6kgN7_r8-88" value="" style="endArrow=none;html=1;rounded=0;exitX=1;exitY=0.5;exitDx=0;exitDy=0;entryX=0;entryY=0.5;entryDx=0;entryDy=0;" edge="1" parent="1" source="9bkrWgoY6Sax6kgN7_r8-74" target="9bkrWgoY6Sax6kgN7_r8-77">
          <mxGeometry width="50" height="50" relative="1" as="geometry">
            <mxPoint x="400" y="1680" as="sourcePoint" />
            <mxPoint x="450" y="1630" as="targetPoint" />
          </mxGeometry>
        </mxCell>
        <mxCell id="9bkrWgoY6Sax6kgN7_r8-89" value="Validar dados" style="ellipse;whiteSpace=wrap;html=1;" vertex="1" parent="1">
          <mxGeometry x="560" y="1590" width="120" height="50" as="geometry" />
        </mxCell>
        <mxCell id="9bkrWgoY6Sax6kgN7_r8-90" value="&amp;lt;&amp;lt;include&amp;gt;&amp;gt;" style="html=1;verticalAlign=bottom;labelBackgroundColor=none;endArrow=open;endFill=0;dashed=1;rounded=0;entryX=1;entryY=0.5;entryDx=0;entryDy=0;" edge="1" parent="1" source="9bkrWgoY6Sax6kgN7_r8-89" target="9bkrWgoY6Sax6kgN7_r8-78">
          <mxGeometry width="160" relative="1" as="geometry">
            <mxPoint x="350" y="1650" as="sourcePoint" />
            <mxPoint x="510" y="1650" as="targetPoint" />
          </mxGeometry>
        </mxCell>
        <mxCell id="9bkrWgoY6Sax6kgN7_r8-91" value="Adm CartÃµes" style="shape=umlActor;verticalLabelPosition=bottom;verticalAlign=top;html=1;outlineConnect=0;" vertex="1" parent="1">
          <mxGeometry x="770" y="1585" width="30" height="60" as="geometry" />
        </mxCell>
        <mxCell id="9bkrWgoY6Sax6kgN7_r8-96" value="" style="endArrow=none;html=1;rounded=0;exitX=1;exitY=0.5;exitDx=0;exitDy=0;" edge="1" parent="1" source="9bkrWgoY6Sax6kgN7_r8-89" target="9bkrWgoY6Sax6kgN7_r8-91">
          <mxGeometry width="50" height="50" relative="1" as="geometry">
            <mxPoint x="690" y="1740" as="sourcePoint" />
            <mxPoint x="740" y="1690" as="targetPoint" />
          </mxGeometry>
        </mxCell>
      </root>
    </mxGraphModel>
  </diagram>
</mxfile>
